<?xml version="1.0" encoding="UTF-8"?>
<svg id="Ebene_1" data-name="Ebene 1" xmlns="http://www.w3.org/2000/svg" viewBox="0 0 606.8 500.61">
  <defs>
    <style>
      .cls-1 {
        fill: #1d1d1b;
      }
    </style>
  </defs>
  <path class="cls-1" d="M303.05,149.06c-155.62,0-281.78,44.3-281.78,98.95s126.16,98.95,281.78,98.95,281.77-44.3,281.77-98.95-126.15-98.95-281.77-98.95ZM432.37,257.49c-14.59-21.47-27.51-42.45-45.72-56.15-19.81-12.77-47.14-21.66-87.16-21.66s-96.86,15.31-96.86,67.12c0,37.69,39.74,65.35,110.7,65.35,46.88,0,79.87-20.5,97.7-34.76h7.79c-17.31,18.44-53.25,49.19-122.27,49.19-73.61,0-123.36-37.09-123.36-79.78,0-52.41,63.01-79.21,124.53-79.21,51.7,0,85.8,17.47,88.75,18.17,10.54,2.53,12.97-10.49,12.97-10.49h5.53l34.41,82.22h-7.01Z"/>
</svg>
